<svg width="60" height="47" viewBox="0 0 60 47" fill="none" xmlns="http://www.w3.org/2000/svg">
<path d="M38.4543 41.3331H5.5759C3.47063 41.3331 1.75781 39.6204 1.75781 37.5151V11.2122C1.75781 9.10689 3.47063 7.3942 5.5759 7.3942C6.06129 7.3942 6.4548 7.00068 6.4548 6.51529C6.4548 6.02978 6.06129 5.63638 5.5759 5.63638C2.50137 5.63638 0 8.13763 0 11.2122V37.5151C0 40.5897 2.50137 43.0909 5.5759 43.0909H38.4543C38.9396 43.0909 39.3332 42.6975 39.3332 42.212C39.3332 41.7267 38.9396 41.3331 38.4543 41.3331Z" fill="#C5AC2D"/>
<path d="M54.424 5.63638H25.3027C24.8173 5.63638 24.4238 6.02978 24.4238 6.51529C24.4238 7.00068 24.8173 7.3942 25.3027 7.3942H54.424C56.5292 7.3942 58.242 9.10689 58.242 11.2122V37.5151C58.242 39.6204 56.5292 41.3331 54.424 41.3331H53.4846C52.9992 41.3331 52.6057 41.7266 52.6057 42.212C52.6057 42.6975 52.9992 43.0909 53.4846 43.0909H54.424C57.4985 43.0909 59.9999 40.5897 59.9999 37.5151V11.2122C59.9999 8.13763 57.4985 5.63638 54.424 5.63638Z" fill="#C5AC2D"/>
<path d="M9.3335 7.39418C11.9567 7.39418 14.091 9.52828 14.091 12.1516C14.091 12.637 14.4845 13.0305 14.9699 13.0305C15.4553 13.0305 15.8488 12.637 15.8488 12.1516C15.8488 9.5284 17.983 7.39418 20.6062 7.39418C21.0916 7.39418 21.4851 7.00066 21.4851 6.51527C21.4851 6.02976 21.0916 5.63637 20.6062 5.63637C17.983 5.63637 15.8488 3.50215 15.8488 0.878906C15.8488 0.393516 15.4553 0 14.9699 0C14.4845 0 14.091 0.393516 14.091 0.878906C14.091 3.50215 11.9569 5.63637 9.3335 5.63637C8.84811 5.63637 8.45459 6.02976 8.45459 6.51527C8.45459 7.00066 8.84811 7.39418 9.3335 7.39418ZM14.9699 4.14434C15.5404 5.12543 16.3597 5.94469 17.3408 6.51527C16.3597 7.08574 15.5404 7.90512 14.9699 8.88609C14.3993 7.90512 13.58 7.08574 12.599 6.51527C13.5799 5.94469 14.3993 5.12543 14.9699 4.14434Z" fill="#C5AC2D"/>
<path d="M49.727 41.3331C48.1397 41.3331 46.8484 40.0417 46.8484 38.4545C46.8484 37.9691 46.4549 37.5756 45.9695 37.5756C45.4841 37.5756 45.0906 37.9691 45.0906 38.4545C45.0906 40.0418 43.7992 41.3331 42.2119 41.3331C41.7265 41.3331 41.333 41.7266 41.333 42.212C41.333 42.6975 41.7265 43.0909 42.2119 43.0909C43.7992 43.0909 45.0906 44.3823 45.0906 45.9696C45.0906 46.455 45.4841 46.8485 45.9695 46.8485C46.4549 46.8485 46.8484 46.455 46.8484 45.9696C46.8484 44.3823 48.1398 43.0909 49.727 43.0909C50.2124 43.0909 50.6059 42.6975 50.6059 42.212C50.6059 41.7267 50.2124 41.3331 49.727 41.3331ZM45.9694 43.2563C45.679 42.8552 45.3262 42.5024 44.9252 42.212C45.3261 41.9216 45.679 41.5688 45.9694 41.1679C46.2598 41.5688 46.6127 41.9217 47.0137 42.212C46.6127 42.5024 46.2598 42.8554 45.9694 43.2563Z" fill="#C5AC2D"/>
<path d="M13.2759 15.9696C12.7905 15.9696 12.397 16.3631 12.397 16.8485V31.8661C12.397 32.2942 12.7054 32.6599 13.1273 32.7323C13.1883 32.7428 13.2767 32.758 14.907 32.758C15.6983 32.758 16.8531 32.7544 18.544 32.745C19.0294 32.7423 19.4207 32.3466 19.418 31.8612C19.4153 31.3774 19.0224 30.9872 18.5392 30.9872C18.5376 30.9872 18.5358 30.9872 18.5342 30.9872C17.2014 30.9946 15.2498 31.0021 14.1549 30.9994V16.8485C14.1548 16.3631 13.7613 15.9696 13.2759 15.9696Z" fill="#C5AC2D"/>
<path d="M37.2863 32.5972C37.4402 32.7056 37.6168 32.7578 37.7918 32.7578C38.068 32.7578 38.3399 32.6279 38.5111 32.385L43.4622 25.3567L48.4062 32.3844C48.5773 32.6277 48.8494 32.7578 49.1258 32.7578C49.3005 32.7578 49.477 32.7057 49.6308 32.5976C50.0278 32.3183 50.1232 31.77 49.8439 31.3731L44.5377 23.8302L49.0996 17.3546C49.379 16.9579 49.284 16.4095 48.8872 16.1299C48.4904 15.8503 47.9421 15.9455 47.6625 16.3423L43.4633 22.3029L39.2705 16.3427C38.9911 15.9456 38.4429 15.8503 38.0458 16.1296C37.6488 16.4088 37.5534 16.9572 37.8327 17.3541L42.3879 23.8294L37.074 31.3725C36.7945 31.7694 36.8896 32.3177 37.2863 32.5972Z" fill="#C5AC2D"/>
<path d="M24.7423 31.8271C25.7063 32.443 26.7971 32.756 27.9847 32.7577H27.9946C29.0264 32.7577 29.9918 32.5349 30.8641 32.0957C33.0336 31.003 34.1803 29.3033 34.1803 27.1801V16.8485C34.1803 16.3631 33.7868 15.9696 33.3014 15.9696C32.816 15.9696 32.4225 16.3631 32.4225 16.8485V27.1801C32.4225 28.6352 31.6541 29.7296 30.0735 30.5257C29.4485 30.8405 28.7491 31 27.9943 30.9998C27.9919 30.9998 27.9894 30.9998 27.987 30.9998C27.1393 30.9987 26.366 30.7786 25.6886 30.3457C24.3202 29.4715 23.7363 28.5279 23.7363 27.1909V16.8485C23.7363 16.3631 23.3428 15.9696 22.8574 15.9696C22.372 15.9696 21.9785 16.3631 21.9785 16.8485V27.1909C21.9786 29.1225 22.8826 30.6389 24.7423 31.8271Z" fill="#C5AC2D"/>
</svg>
